<svg xmlns="http://www.w3.org/2000/svg" viewBox="0 0 512 512" role="img" aria-label="Latch">
  <rect width="512" height="512" rx="112" fill="#2563eb"/>
  <g transform="translate(65 63) scale(6)">
    <g fill="#ffffff">
      <path d="M5.24762,11.75311a2.9551,2.9551,0,0,0-.232,1.15094V42.30566a2.932,2.932,0,0,0,.37713,1.41974L21.30621,27.812Z"/>
      <path d="M36.84,36.03l3.48,9.24H7.98a3.02041,3.02041,0,0,1-1.09-.21L22.72,29.23l3.95,3.95a3.97149,3.97149,0,0,0,5.61,0l3.95-3.95,2.63,2.63a3.18134,3.18134,0,0,0-1.29.79A3.14138,3.14138,0,0,0,36.84,36.03Z"/>
      <path d="M53.94,12.9V36.8l-11.7-4.39-4.59-4.6L53.7,11.75A2.99724,2.99724,0,0,1,53.94,12.9Z"/>
      <path d="M30.86523,31.76318,52.33978,10.28864a2.9312,2.9312,0,0,0-1.36865-.34949H7.98047a2.93186,2.93186,0,0,0-1.369.34967L28.08594,31.76367A1.96861,1.96861,0,0,0,30.86523,31.76318Z"/>
    </g>
    <path fill="#f59e0b" d="M58.64,51.33l-2.39,2.38a1.189,1.189,0,0,1-1.69,0l-5.17-5.17a.09748.09748,0,0,0-.16.04l-1.68,4.33a1.19505,1.19505,0,0,1-2.23-.01l-2.87-7.63L38.71,35.32a1.19336,1.19336,0,0,1,1.54-1.53l.87.33,4.54,1.71,8.28,3.11,3.88,1.46a1.193,1.193,0,0,1,.01,2.23L53.5,44.31a.09644.09644,0,0,0-.04.16l5.18,5.17A1.20731,1.20731,0,0,1,58.64,51.33Z"/>
  </g>
</svg>
